<svg version="1.1" id="Layer_1" xmlns="http://www.w3.org/2000/svg" xmlns:xlink="http://www.w3.org/1999/xlink" x="0px" y="0px"
	 width="100%" viewBox="0 0 512 512" enable-background="new 0 0 512 512" xml:space="preserve">
<path fill="#000000" opacity="1.000000" stroke="none" 
	d="
M236.000000,513.000000 
	C157.352402,513.000000 79.204803,513.000000 1.028605,513.000000 
	C1.028605,342.394043 1.028605,171.788086 1.028605,1.091059 
	C171.564285,1.091059 342.128632,1.091059 512.846497,1.091059 
	C512.846497,171.666565 512.846497,342.333252 512.846497,513.000000 
	C420.788055,513.000000 328.644012,513.000000 236.000000,513.000000 
M186.500000,377.957367 
	C249.621750,377.644836 312.743500,377.330933 375.865234,377.022308 
	C381.029907,376.997040 386.207428,376.769348 391.357269,377.043335 
	C412.701172,378.178772 427.182770,359.847809 427.068665,341.088135 
	C426.794067,295.939697 427.012054,250.788391 426.933075,205.638428 
	C426.925537,201.335388 426.534119,196.979691 425.791718,192.741135 
	C423.418518,179.192108 408.330627,165.526917 395.157654,165.065842 
	C380.690491,164.559479 366.195831,163.797897 351.746338,164.237915 
	C343.755859,164.481277 339.469849,160.997726 335.869995,154.759567 
	C329.795471,144.233032 323.501007,133.830566 317.140411,123.473351 
	C314.651550,119.420685 310.880157,117.046700 305.971466,117.043488 
	C273.650024,117.022339 241.328445,116.992805 209.007248,117.083107 
	C203.697815,117.097946 199.389221,119.413361 196.573349,124.135445 
	C194.441315,127.710724 192.263748,131.259338 190.070206,134.797348 
	C185.069138,142.863724 180.049194,150.918411 175.030014,158.973557 
	C172.684998,162.737061 169.243042,163.989243 164.878510,164.130371 
	C160.937271,164.257797 159.811981,161.976257 158.564240,159.050354 
	C158.163956,158.111694 156.494324,157.178375 155.389984,157.159790 
	C145.609894,156.995163 135.823593,156.919617 126.046875,157.148926 
	C124.640495,157.181915 122.309380,158.782410 122.065353,159.992172 
	C121.198471,164.289886 118.281776,165.209061 114.680908,166.135757 
	C99.220528,170.114578 87.169540,184.668610 87.106766,200.255035 
	C86.914185,248.070007 86.886192,295.886993 87.117279,343.701599 
	C87.201111,361.047760 102.780357,376.647125 119.590126,376.966614 
	C141.558426,377.384155 163.529892,377.634705 186.500000,377.957367 
z"/>
<path fill="#181715" opacity="1.000000" stroke="none" 
	d="
M186.000000,377.957245 
	C163.529892,377.634705 141.558426,377.384155 119.590126,376.966614 
	C102.780357,376.647125 87.201111,361.047760 87.117279,343.701599 
	C86.886192,295.886993 86.914185,248.070007 87.106766,200.255035 
	C87.169540,184.668610 99.220528,170.114578 114.680908,166.135757 
	C118.281776,165.209061 121.198471,164.289886 122.065353,159.992172 
	C122.309380,158.782410 124.640495,157.181915 126.046875,157.148926 
	C135.823593,156.919617 145.609894,156.995163 155.389984,157.159790 
	C156.494324,157.178375 158.163956,158.111694 158.564240,159.050354 
	C159.811981,161.976257 160.937271,164.257797 164.878510,164.130371 
	C169.243042,163.989243 172.684998,162.737061 175.030014,158.973557 
	C180.049194,150.918411 185.069138,142.863724 190.070206,134.797348 
	C192.263748,131.259338 194.441315,127.710724 196.573349,124.135445 
	C199.389221,119.413361 203.697815,117.097946 209.007248,117.083107 
	C241.328445,116.992805 273.650024,117.022339 305.971466,117.043488 
	C310.880157,117.046700 314.651550,119.420685 317.140411,123.473351 
	C323.501007,133.830566 329.795471,144.233032 335.869995,154.759567 
	C339.469849,160.997726 343.755859,164.481277 351.746338,164.237915 
	C366.195831,163.797897 380.690491,164.559479 395.157654,165.065842 
	C408.330627,165.526917 423.418518,179.192108 425.791718,192.741135 
	C426.534119,196.979691 426.925537,201.335388 426.933075,205.638428 
	C427.012054,250.788391 426.794067,295.939697 427.068665,341.088135 
	C427.182770,359.847809 412.701172,378.178772 391.357269,377.043335 
	C386.207428,376.769348 381.029907,376.997040 375.865234,377.022308 
	C312.743500,377.330933 249.621750,377.644836 186.000000,377.957245 
M272.981873,368.125671 
	C280.965118,366.111328 289.389038,365.124512 296.861755,361.919708 
	C355.535675,336.756195 377.044403,264.700684 341.534149,212.221237 
	C322.760651,184.476456 295.673553,169.399994 261.400879,167.853317 
	C237.689011,166.783234 216.390640,172.543259 197.417297,186.719986 
	C160.253662,214.488327 147.146667,258.335358 160.420792,299.651215 
	C171.236664,333.315704 194.056931,355.955627 228.344040,366.100159 
	C234.004013,367.774719 240.085632,368.024200 246.686890,369.358429 
	C254.128220,369.231323 261.569550,369.104248 269.616730,368.709534 
	C270.051300,368.733124 270.485870,368.756744 271.280487,368.852844 
	C271.637451,368.743988 271.994385,368.635162 272.981873,368.125671 
z"/>
<path fill="#FA7716" opacity="1.000000" stroke="none" 
	d="
M245.972397,368.932251 
	C240.085632,368.024200 234.004013,367.774719 228.344040,366.100159 
	C194.056931,355.955627 171.236664,333.315704 160.420792,299.651215 
	C147.146667,258.335358 160.253662,214.488327 197.417297,186.719986 
	C216.390640,172.543259 237.689011,166.783234 261.400879,167.853317 
	C295.673553,169.399994 322.760651,184.476456 341.534149,212.221237 
	C377.044403,264.700684 355.535675,336.756195 296.861755,361.919708 
	C289.389038,365.124512 280.965118,366.111328 272.292114,368.311035 
	C271.375031,368.591034 271.147736,368.685699 270.920441,368.780334 
	C270.485870,368.756744 270.051300,368.733124 268.847168,368.787079 
	C260.709198,368.887177 253.340790,368.909698 245.972397,368.932251 
M313.744904,290.201050 
	C311.316681,284.218628 308.655975,278.317383 306.530853,272.229156 
	C304.701569,266.988464 302.965729,261.613373 302.134033,256.153687 
	C301.228485,250.208542 297.709351,247.511459 293.261139,251.383453 
	C288.139771,255.841431 284.259949,261.752075 280.003845,267.160095 
	C278.874695,268.594849 278.343658,270.500305 277.537994,272.189667 
	C277.074310,272.099915 276.610626,272.010162 276.146973,271.920410 
	C276.021912,270.252655 275.595520,268.542969 275.820801,266.923950 
	C277.259399,256.583649 279.305756,246.306808 280.279083,235.927231 
	C282.281006,214.578644 266.575958,190.478485 246.358658,183.362244 
	C244.522598,182.716003 241.323303,182.619736 240.344940,183.702652 
	C239.127563,185.050110 239.217484,187.911926 239.357758,190.079956 
	C239.610977,193.992950 241.374130,198.092743 240.627365,201.728516 
	C238.910889,210.085220 237.451630,218.993942 233.351730,226.244446 
	C227.267532,237.004089 219.084091,246.594223 211.621826,256.553009 
	C200.104050,271.924164 195.726532,289.428436 199.267197,307.898071 
	C206.989532,348.181274 252.838989,364.791138 284.553223,346.586151 
	C305.642700,334.480164 316.275940,315.998016 313.744904,290.201050 
z"/>
<path fill="#000515" opacity="1.000000" stroke="none" 
	d="
M246.329651,369.145325 
	C253.340790,368.909698 260.709198,368.887177 268.544250,368.920898 
	C261.569550,369.104248 254.128220,369.231323 246.329651,369.145325 
z"/>
<path fill="#000515" opacity="1.000000" stroke="none" 
	d="
M271.100464,368.816589 
	C271.147736,368.685699 271.375031,368.591034 271.976837,368.511353 
	C271.994385,368.635162 271.637451,368.743988 271.100464,368.816589 
z"/>
<path fill="#171615" opacity="1.000000" stroke="none" 
	d="
M313.833527,290.635254 
	C316.275940,315.998016 305.642700,334.480164 284.553223,346.586151 
	C252.838989,364.791138 206.989532,348.181274 199.267197,307.898071 
	C195.726532,289.428436 200.104050,271.924164 211.621826,256.553009 
	C219.084091,246.594223 227.267532,237.004089 233.351730,226.244446 
	C237.451630,218.993942 238.910889,210.085220 240.627365,201.728516 
	C241.374130,198.092743 239.610977,193.992950 239.357758,190.079956 
	C239.217484,187.911926 239.127563,185.050110 240.344940,183.702652 
	C241.323303,182.619736 244.522598,182.716003 246.358658,183.362244 
	C266.575958,190.478485 282.281006,214.578644 280.279083,235.927231 
	C279.305756,246.306808 277.259399,256.583649 275.820801,266.923950 
	C275.595520,268.542969 276.021912,270.252655 276.146973,271.920410 
	C276.610626,272.010162 277.074310,272.099915 277.537994,272.189667 
	C278.343658,270.500305 278.874695,268.594849 280.003845,267.160095 
	C284.259949,261.752075 288.139771,255.841431 293.261139,251.383453 
	C297.709351,247.511459 301.228485,250.208542 302.134033,256.153687 
	C302.965729,261.613373 304.701569,266.988464 306.530853,272.229156 
	C308.655975,278.317383 311.316681,284.218628 313.833527,290.635254 
M211.315598,274.011139 
	C206.770157,284.994934 206.745789,296.675049 208.328659,307.919342 
	C210.916687,326.303925 234.357697,345.681213 253.284821,345.690216 
	C271.648529,345.698975 286.857880,338.301941 297.430328,323.001740 
	C305.950867,310.671082 308.889832,297.451141 301.750916,283.150269 
	C298.537659,276.713379 295.955872,269.961304 292.848419,262.801208 
	C291.559967,264.944244 290.100525,266.910950 289.123596,269.093567 
	C287.162781,273.474396 285.551086,278.010315 283.638794,282.414246 
	C280.932861,288.645844 275.213165,289.276825 268.172821,287.606537 
	C262.823151,286.337311 260.113403,280.717102 261.548370,274.923126 
	C263.974426,265.127228 266.658539,255.394928 269.262482,245.643448 
	C271.197571,238.396561 272.801514,231.192596 270.902008,223.599838 
	C267.912109,211.648544 259.670563,203.875443 249.844711,195.323502 
	C250.628448,217.886200 240.897919,234.645767 228.230972,250.344452 
	C222.309479,257.683228 217.167679,265.651154 211.315598,274.011139 
z"/>
<path fill="#F97716" opacity="1.000000" stroke="none" 
	d="
M211.494049,273.672546 
	C217.167679,265.651154 222.309479,257.683228 228.230972,250.344452 
	C240.897919,234.645767 250.628448,217.886200 249.844711,195.323502 
	C259.670563,203.875443 267.912109,211.648544 270.902008,223.599838 
	C272.801514,231.192596 271.197571,238.396561 269.262482,245.643448 
	C266.658539,255.394928 263.974426,265.127228 261.548370,274.923126 
	C260.113403,280.717102 262.823151,286.337311 268.172821,287.606537 
	C275.213165,289.276825 280.932861,288.645844 283.638794,282.414246 
	C285.551086,278.010315 287.162781,273.474396 289.123596,269.093567 
	C290.100525,266.910950 291.559967,264.944244 292.848419,262.801208 
	C295.955872,269.961304 298.537659,276.713379 301.750916,283.150269 
	C308.889832,297.451141 305.950867,310.671082 297.430328,323.001740 
	C286.857880,338.301941 271.648529,345.698975 253.284821,345.690216 
	C234.357697,345.681213 210.916687,326.303925 208.328659,307.919342 
	C206.745789,296.675049 206.770157,284.994934 211.494049,273.672546 
z"/>
</svg>